<?xml version="1.0" encoding="utf-8"?>
<!-- Generator: Adobe Illustrator 21.1.0, SVG Export Plug-In . SVG Version: 6.00 Build 0)  -->
<svg version="1.1" id="Layer_1" xmlns="http://www.w3.org/2000/svg" xmlns:xlink="http://www.w3.org/1999/xlink" x="0px" y="0px"
	 viewBox="0 0 500 500" style="enable-background:new 0 0 500 500;" xml:space="preserve">
<style type="text/css">
	.st0{fill:#83B662;}
	.st1{fill:#5A943D;}
	.st2{fill:#5692CD;}
	.st3{fill:#96BFE0;}
</style>
<g>
	<path d="M385.4,466H113.9c-17.8,0-32.3-14.4-32.3-32.3V65.3c0-17.8,14.4-32.3,32.3-32.3h271.5c17.8,0,32.3,14.4,32.3,32.3v368.5
		C417.7,451.6,403.2,466,385.4,466z"/>
</g>
<g>
	<path class="st0" d="M130,253.3c-7.4,0-13.5-6.1-13.5-13.5V202c0-7.4,6.1-13.5,13.5-13.5h39.3c7.4,0,13.5,6.1,13.5,13.5v37.8
		c0,7.4-6.1,13.5-13.5,13.5H130z"/>
	<path d="M169.3,189c7.2,0,13,5.8,13,13v37.8c0,7.2-5.8,13-13,13H130c-7.2,0-13-5.8-13-13V202c0-7.2,5.8-13,13-13H169.3 M169.3,188
		H130c-7.7,0-14,6.3-14,14v37.8c0,7.7,6.3,14,14,14h39.3c7.7,0,14-6.3,14-14V202C183.3,194.3,177,188,169.3,188L169.3,188z"/>
</g>
<g>
	<path class="st1" d="M230.6,252.4c-7.5,0-13.7-6.1-13.7-13.7v-36.6c0-7.5,6.1-13.7,13.7-13.7h38.1c7.5,0,13.7,6.1,13.7,13.7v36.6
		c0,7.5-6.1,13.7-13.7,13.7H230.6z"/>
	<path d="M268.7,189c7.3,0,13.2,5.9,13.2,13.2v36.6c0,7.3-5.9,13.2-13.2,13.2h-38.1c-7.3,0-13.2-5.9-13.2-13.2v-36.6
		c0-7.3,5.9-13.2,13.2-13.2H268.7 M268.7,188h-38.1c-7.8,0-14.2,6.3-14.2,14.2v36.6c0,7.8,6.3,14.2,14.2,14.2h38.1
		c7.8,0,14.2-6.3,14.2-14.2v-36.6C282.9,194.3,276.6,188,268.7,188L268.7,188z"/>
</g>
<g>
	<path class="st1" d="M330.7,252.4c-7.5,0-13.7-6.1-13.7-13.7v-36.6c0-7.5,6.1-13.7,13.7-13.7h38.1c7.5,0,13.7,6.1,13.7,13.7v36.6
		c0,7.5-6.1,13.7-13.7,13.7H330.7z"/>
	<path d="M368.8,189c7.3,0,13.2,5.9,13.2,13.2v36.6c0,7.3-5.9,13.2-13.2,13.2h-38.1c-7.3,0-13.2-5.9-13.2-13.2v-36.6
		c0-7.3,5.9-13.2,13.2-13.2H368.8 M368.8,188h-38.1c-7.8,0-14.2,6.3-14.2,14.2v36.6c0,7.8,6.3,14.2,14.2,14.2h38.1
		c7.8,0,14.2-6.3,14.2-14.2v-36.6C383,194.3,376.7,188,368.8,188L368.8,188z"/>
</g>
<g>
	<path class="st0" d="M130,339.7c-7.4,0-13.5-6.1-13.5-13.5v-37.8c0-7.4,6.1-13.5,13.5-13.5h39.3c7.4,0,13.5,6.1,13.5,13.5v37.8
		c0,7.4-6.1,13.5-13.5,13.5H130z"/>
	<path d="M169.3,275.5c7.2,0,13,5.8,13,13v37.8c0,7.2-5.8,13-13,13H130c-7.2,0-13-5.8-13-13v-37.8c0-7.2,5.8-13,13-13H169.3
		 M169.3,274.5H130c-7.7,0-14,6.3-14,14v37.8c0,7.7,6.3,14,14,14h39.3c7.7,0,14-6.3,14-14v-37.8C183.3,280.7,177,274.5,169.3,274.5
		L169.3,274.5z"/>
</g>
<g>
	<path class="st1" d="M230.6,339.3c-7.5,0-13.7-6.1-13.7-13.7v-36.6c0-7.5,6.1-13.7,13.7-13.7h38.1c7.5,0,13.7,6.1,13.7,13.7v36.6
		c0,7.5-6.1,13.7-13.7,13.7H230.6z"/>
	<path d="M268.7,275.9c7.3,0,13.2,5.9,13.2,13.2v36.6c0,7.3-5.9,13.2-13.2,13.2h-38.1c-7.3,0-13.2-5.9-13.2-13.2v-36.6
		c0-7.3,5.9-13.2,13.2-13.2H268.7 M268.7,274.9h-38.1c-7.8,0-14.2,6.3-14.2,14.2v36.6c0,7.8,6.3,14.2,14.2,14.2h38.1
		c7.8,0,14.2-6.3,14.2-14.2v-36.6C282.9,281.2,276.6,274.9,268.7,274.9L268.7,274.9z"/>
</g>
<g>
	<path class="st1" d="M330.7,425.5c-7.5,0-13.7-6.1-13.7-13.7V289.2c0-7.5,6.1-13.7,13.7-13.7h38.1c7.5,0,13.7,6.1,13.7,13.7v122.7
		c0,7.5-6.1,13.7-13.7,13.7H330.7z"/>
	<path d="M368.8,276c7.3,0,13.2,5.9,13.2,13.2v122.7c0,7.3-5.9,13.2-13.2,13.2h-38.1c-7.3,0-13.2-5.9-13.2-13.2V289.2
		c0-7.3,5.9-13.2,13.2-13.2H368.8 M368.8,275h-38.1c-7.8,0-14.2,6.3-14.2,14.2v122.7c0,7.8,6.3,14.2,14.2,14.2h38.1
		c7.8,0,14.2-6.3,14.2-14.2V289.2C383,281.3,376.7,275,368.8,275L368.8,275z"/>
</g>
<g>
	<path class="st1" d="M230.6,425.5c-7.5,0-13.7-6.1-13.7-13.7v-36.6c0-7.5,6.1-13.7,13.7-13.7h38.1c7.5,0,13.7,6.1,13.7,13.7v36.6
		c0,7.5-6.1,13.7-13.7,13.7H230.6z"/>
	<path d="M268.7,362.1c7.3,0,13.2,5.9,13.2,13.2v36.6c0,7.3-5.9,13.2-13.2,13.2h-38.1c-7.3,0-13.2-5.9-13.2-13.2v-36.6
		c0-7.3,5.9-13.2,13.2-13.2H268.7 M268.7,361.1h-38.1c-7.8,0-14.2,6.3-14.2,14.2v36.6c0,7.8,6.3,14.2,14.2,14.2h38.1
		c7.8,0,14.2-6.3,14.2-14.2v-36.6C282.9,367.4,276.6,361.1,268.7,361.1L268.7,361.1z"/>
</g>
<g>
	<path class="st1" d="M131,425.5c-7.5,0-13.7-6.1-13.7-13.7v-36.6c0-7.5,6.1-13.7,13.7-13.7h38.1c7.5,0,13.7,6.1,13.7,13.7v36.6
		c0,7.5-6.1,13.7-13.7,13.7H131z"/>
	<path d="M169.1,362.1c7.3,0,13.2,5.9,13.2,13.2v36.6c0,7.3-5.9,13.2-13.2,13.2H131c-7.3,0-13.2-5.9-13.2-13.2v-36.6
		c0-7.3,5.9-13.2,13.2-13.2H169.1 M169.1,361.1H131c-7.8,0-14.2,6.3-14.2,14.2v36.6c0,7.8,6.3,14.2,14.2,14.2h38.1
		c7.8,0,14.2-6.3,14.2-14.2v-36.6C183.3,367.4,177,361.1,169.1,361.1L169.1,361.1z"/>
</g>
<g>
	<g>
		<path class="st2" d="M359.9,145H139.5c-12.8,0-23.2-10.4-23.2-23.3V99.3c0-12.8,10.4-23.3,23.2-23.3h220.4
			c12.8,0,23.3,10.4,23.3,23.3v22.5C383.1,134.6,372.7,145,359.9,145z"/>
	</g>
	<path class="st3" d="M141.3,76c-12.8,0-23.3,10.4-23.3,23.3v22.5c0,12.8,10.4,23.3,23.3,23.3h74.5l69-69H141.3z"/>
</g>
</svg>
